<?xml version="1.0" encoding="UTF-8" ?>
<!DOCTYPE svg PUBLIC "-//W3C//DTD SVG 1.1//EN" "http://www.w3.org/Graphics/SVG/1.1/DTD/svg11.dtd">
<svg width="1765pt" height="854pt" viewBox="0 0 1765 854" version="1.1" xmlns="http://www.w3.org/2000/svg">
<g id="#ffffffff">
<path fill="#ffffff" opacity="1.00" d=" M 1001.63 79.71 C 1029.37 84.14 1057.07 89.78 1083.51 99.47 C 1121.54 113.07 1157.17 133.95 1186.65 161.67 C 1216.73 140.51 1250.72 124.01 1287.15 117.63 C 1322.95 111.11 1360.30 115.82 1394.04 129.11 C 1416.52 137.83 1437.55 149.98 1457.13 164.00 C 1483.84 138.52 1515.80 118.87 1549.94 105.00 C 1580.03 92.89 1611.83 85.67 1643.84 80.88 C 1654.78 126.43 1661.47 173.10 1662.72 219.97 C 1663.54 259.97 1660.56 300.55 1648.59 338.93 C 1644.01 353.42 1637.93 367.46 1630.13 380.52 C 1633.98 388.68 1638.22 396.65 1642.16 404.78 C 1650.07 422.07 1657.95 439.38 1664.70 457.17 C 1670.33 470.86 1674.68 485.03 1679.65 498.97 C 1661.17 557.79 1628.38 612.10 1584.45 655.41 C 1568.87 670.84 1551.95 684.90 1533.95 697.41 C 1565.60 722.00 1597.24 746.60 1628.89 771.19 C 1632.30 773.41 1632.66 779.16 1629.14 781.45 C 1627.35 782.69 1625.05 781.81 1623.57 780.54 C 1590.63 754.91 1557.64 729.33 1524.73 703.66 C 1518.82 707.45 1512.83 711.08 1506.76 714.59 C 1533.15 735.82 1560.24 756.18 1586.82 777.17 C 1590.31 779.55 1589.97 785.82 1585.96 787.46 C 1583.88 788.38 1581.95 786.78 1580.39 785.64 C 1552.53 763.83 1524.49 742.27 1496.68 720.40 C 1464.33 737.22 1429.73 749.88 1393.94 756.98 C 1308.94 774.05 1218.09 760.72 1141.92 719.19 C 1117.01 738.52 1092.14 757.90 1067.25 777.25 C 1062.38 780.59 1058.30 785.09 1052.93 787.66 C 1047.75 788.23 1045.85 780.48 1049.52 777.58 C 1076.90 756.14 1104.45 734.90 1131.86 713.49 C 1125.76 709.97 1119.74 706.30 1113.90 702.37 C 1081.13 727.77 1048.42 753.24 1015.69 778.69 C 1013.68 780.16 1011.66 782.45 1008.91 781.94 C 1004.58 780.62 1004.09 774.11 1007.54 771.57 C 1039.89 746.40 1072.26 721.25 1104.62 696.10 C 1049.96 657.74 1005.83 604.59 978.08 543.86 C 971.34 529.31 965.87 514.22 960.84 499.00 C 969.65 472.58 979.30 446.41 990.92 421.08 C 997.39 406.07 1004.90 391.54 1012.21 376.93 C 1013.19 375.49 1011.74 373.99 1011.21 372.71 C 995.96 344.80 988.72 313.30 985.03 281.93 C 979.15 228.67 983.35 174.74 992.63 122.12 C 995.09 107.87 997.94 93.69 1001.63 79.71 M 1014.10 98.75 C 1002.28 155.20 995.62 213.24 1000.66 270.90 C 1003.39 300.44 1009.05 330.21 1021.93 357.15 C 1044.09 317.13 1069.35 278.70 1098.65 243.52 C 1120.43 216.81 1144.83 192.13 1171.99 170.86 C 1151.38 151.91 1127.46 136.79 1102.14 124.98 C 1074.19 112.21 1044.38 103.78 1014.10 98.75 M 1549.17 123.38 C 1521.15 135.63 1494.67 151.90 1472.26 172.80 C 1495.42 191.09 1516.58 211.86 1535.84 234.20 C 1569.13 272.86 1597.75 315.40 1622.34 360.06 C 1631.23 341.71 1637.06 321.97 1640.50 301.89 C 1644.40 280.17 1646.12 258.09 1646.21 236.03 C 1646.53 190.25 1640.63 144.61 1631.20 99.87 C 1603.07 104.50 1575.38 112.12 1549.17 123.38 M 1325.53 131.48 C 1320.44 192.67 1315.40 253.87 1310.29 315.06 C 1308.11 315.24 1305.95 315.43 1303.80 315.61 C 1288.38 258.00 1272.92 200.39 1257.51 142.78 C 1254.54 143.84 1251.59 144.95 1248.63 146.02 C 1259.86 207.17 1271.17 268.31 1282.57 329.43 C 1280.51 330.26 1278.46 331.08 1276.40 331.87 C 1245.54 282.72 1214.59 233.64 1183.71 184.50 C 1128.76 227.43 1086.00 283.81 1050.20 343.15 C 1020.86 392.37 996.37 444.57 978.43 499.02 C 1002.77 574.32 1052.96 640.82 1118.29 685.39 C 1143.94 665.64 1169.42 645.68 1195.00 625.84 C 1196.90 624.00 1200.29 623.79 1201.80 626.25 C 1203.91 629.01 1203.08 633.39 1200.16 635.27 C 1176.01 654.05 1151.84 672.81 1127.70 691.61 C 1133.80 695.24 1139.79 699.07 1146.04 702.44 C 1177.08 678.61 1207.69 654.20 1238.89 630.58 C 1244.29 627.83 1247.92 637.30 1243.37 640.17 C 1214.46 662.90 1185.32 685.32 1156.35 707.97 C 1189.06 724.93 1224.48 736.58 1260.80 742.65 C 1335.59 755.26 1414.36 743.57 1481.97 709.07 C 1452.72 686.28 1423.42 663.55 1394.17 640.76 C 1390.88 638.64 1390.48 633.16 1393.74 630.85 C 1395.45 629.30 1397.88 630.15 1399.44 631.47 C 1430.37 655.51 1461.30 679.54 1492.22 703.59 C 1498.57 700.32 1504.63 696.53 1510.74 692.85 C 1485.74 673.26 1460.49 653.97 1435.59 634.26 C 1431.06 630.60 1436.14 621.07 1441.43 625.60 C 1467.77 645.81 1493.90 666.33 1520.15 686.67 C 1586.56 642.23 1637.43 575.04 1662.06 499.00 C 1650.07 462.68 1635.20 427.32 1617.87 393.23 C 1601.83 361.77 1584.06 331.15 1563.88 302.16 C 1547.04 277.11 1528.13 253.46 1507.64 231.32 C 1483.67 205.69 1457.03 182.28 1427.01 163.97 C 1396.41 145.41 1361.60 132.44 1325.53 131.48 Z" />
<path fill="#ffffff" opacity="1.00" d=" M 1117.69 442.80 C 1140.37 436.65 1164.67 434.84 1187.62 440.61 C 1203.59 444.46 1218.22 454.08 1227.59 467.63 C 1236.40 480.63 1240.21 496.44 1240.85 511.99 C 1241.66 529.03 1238.85 545.95 1235.47 562.59 C 1213.64 567.42 1190.50 567.68 1168.99 561.19 C 1151.87 556.21 1136.61 544.89 1127.21 529.71 C 1119.58 517.15 1115.84 502.54 1114.81 487.97 C 1113.73 472.86 1115.32 457.71 1117.69 442.80 M 1134.84 458.11 C 1132.92 472.28 1132.40 486.87 1135.65 500.89 C 1138.95 515.34 1147.23 529.27 1160.33 536.77 C 1177.98 547.21 1199.36 548.53 1219.31 546.38 C 1220.98 536.41 1222.01 526.34 1222.37 516.25 C 1211.80 526.49 1194.15 528.51 1181.78 520.37 C 1168.81 512.46 1162.94 494.80 1168.74 480.73 C 1172.30 471.30 1180.52 463.96 1190.12 461.01 C 1172.45 454.60 1153.14 455.08 1134.84 458.11 Z" />
<path fill="#ffffff" opacity="1.00" d=" M 1437.38 450.57 C 1449.11 442.80 1463.04 438.93 1476.95 437.67 C 1494.76 436.14 1512.81 438.03 1530.03 442.81 C 1533.63 465.24 1535.35 488.72 1528.82 510.80 C 1524.15 527.23 1513.69 542.02 1499.44 551.49 C 1487.67 559.22 1473.91 563.63 1459.96 565.08 C 1444.07 567.21 1427.87 566.05 1412.25 562.61 C 1407.44 539.34 1403.96 514.93 1409.72 491.50 C 1413.46 475.07 1423.32 459.96 1437.38 450.57 M 1457.90 461.07 C 1465.73 463.67 1472.72 469.01 1476.82 476.24 C 1484.87 489.61 1481.34 508.52 1469.05 518.12 C 1456.73 528.55 1436.68 527.60 1425.35 516.13 C 1425.67 526.27 1426.71 536.39 1428.42 546.39 C 1444.55 548.04 1461.33 547.65 1476.68 541.89 C 1489.00 537.49 1499.93 528.88 1506.00 517.16 C 1515.46 499.12 1515.57 477.86 1512.88 458.12 C 1494.68 455.18 1475.41 454.41 1457.90 461.07 Z" />
<path fill="#ffffff" opacity="1.00" d=" M 1259.09 610.67 C 1299.98 598.95 1344.14 598.96 1385.03 610.67 C 1381.16 617.08 1375.98 622.52 1371.27 628.29 C 1363.09 638.08 1354.89 647.86 1346.71 657.65 C 1340.86 664.75 1334.97 673.20 1325.36 675.20 C 1325.39 685.86 1325.37 696.52 1325.37 707.18 C 1323.14 707.17 1320.92 707.17 1318.72 707.18 C 1318.70 696.51 1318.70 685.84 1318.72 675.17 C 1312.18 673.76 1306.78 669.36 1302.73 664.21 C 1289.95 648.69 1276.96 633.34 1264.11 617.89 C 1262.24 615.61 1260.66 613.13 1259.09 610.67 Z" />
</g>
<g id="#000000ff">
<path fill="#000000" opacity="1.00" d=" M 108.61 81.20 C 142.44 86.15 176.04 94.09 207.60 107.46 C 239.21 120.93 268.73 139.55 293.86 163.06 C 322.72 142.63 355.29 126.72 390.12 119.79 C 421.25 113.56 453.84 115.41 484.18 124.65 C 513.07 133.30 539.82 147.94 564.31 165.37 C 589.22 141.57 618.77 122.96 650.29 109.22 C 682.34 95.45 716.55 87.36 750.97 82.29 C 761.45 125.79 767.90 170.29 769.69 215.01 C 770.95 254.84 768.47 295.18 757.73 333.71 C 752.90 350.57 746.16 366.92 737.25 382.04 C 756.81 420.02 773.51 459.48 786.64 500.14 C 762.23 580.19 709.85 651.20 641.10 698.81 C 672.79 723.50 704.56 748.09 736.24 772.81 C 739.97 775.26 739.51 782.03 735.05 783.39 C 732.44 783.83 730.51 781.72 728.60 780.34 C 696.27 755.25 664.07 729.98 631.61 705.06 C 625.88 709.07 619.77 712.46 613.80 716.08 C 640.27 737.02 667.10 757.49 693.64 778.33 C 696.36 780.03 697.12 783.84 695.58 786.59 C 694.27 789.42 690.48 789.77 688.38 787.64 C 660.17 765.68 631.90 743.78 603.73 721.76 C 573.20 737.76 540.60 749.89 506.89 757.15 C 432.82 773.16 353.90 766.34 283.91 737.17 C 272.01 732.25 260.37 726.69 249.03 720.60 C 220.18 742.92 191.46 765.40 162.63 787.73 C 161.07 789.10 158.48 789.69 156.83 788.16 C 153.82 785.70 154.14 780.46 157.40 778.37 C 184.56 757.19 211.78 736.10 238.95 714.94 C 232.94 711.29 226.86 707.72 221.03 703.78 C 188.84 728.69 156.76 753.74 124.60 778.69 C 122.21 780.48 120.04 782.84 117.01 783.49 C 111.90 783.10 110.80 775.35 114.88 772.82 C 147.17 747.68 179.47 722.57 211.80 697.49 C 159.25 660.67 116.43 610.18 88.57 552.40 C 80.52 535.51 73.39 518.09 68.25 500.10 C 81.61 457.62 99.52 416.67 119.94 377.13 C 100.51 342.70 93.18 302.98 90.39 263.95 C 87.74 220.02 90.94 175.84 98.27 132.48 C 100.85 115.23 104.52 98.15 108.61 81.20 M 121.19 100.18 C 112.87 139.93 107.20 180.34 106.24 220.98 C 105.56 247.14 106.82 273.41 111.28 299.22 C 114.58 319.57 119.99 339.76 129.06 358.33 C 143.84 331.93 159.83 306.17 177.45 281.56 C 206.64 241.20 239.60 203.01 279.08 172.35 C 271.77 165.08 263.39 159.04 255.18 152.85 C 246.95 147.34 238.83 141.60 230.01 137.04 C 196.49 117.98 159.11 106.47 121.19 100.18 M 655.23 125.24 C 627.61 137.42 601.53 153.55 579.39 174.16 C 603.32 193.15 625.22 214.67 644.98 237.97 C 677.42 275.97 705.41 317.67 729.41 361.47 C 738.37 343.32 743.99 323.70 747.53 303.82 C 752.25 277.83 753.77 251.33 753.26 224.94 C 752.58 183.34 746.86 141.97 738.35 101.29 C 709.85 106.00 681.74 113.68 655.23 125.24 M 417.43 316.43 C 415.26 316.63 413.10 316.82 410.94 317.02 C 395.48 259.40 380.06 201.76 364.62 144.14 C 361.63 145.22 358.65 146.33 355.69 147.52 C 367.05 208.64 378.38 269.76 389.62 330.90 C 387.57 331.46 385.55 333.07 383.44 332.83 C 352.29 284.00 321.81 234.73 290.68 185.89 C 240.54 225.31 200.38 275.91 166.47 329.59 C 133.60 382.27 106.19 438.51 86.57 497.47 C 86.16 498.89 85.41 500.40 86.06 501.89 C 110.56 576.63 160.53 642.57 225.52 686.81 C 251.28 666.81 276.97 646.72 302.79 626.81 C 304.47 625.18 307.31 625.62 308.75 627.35 C 310.99 630.02 310.40 634.49 307.50 636.48 C 283.33 655.36 259.06 674.12 234.87 692.99 C 240.96 696.70 246.96 700.58 253.30 703.85 C 283.32 680.38 313.49 657.09 343.52 633.63 C 345.10 632.48 346.95 630.85 349.06 631.57 C 353.26 633.12 353.65 639.54 350.05 641.96 C 321.19 664.47 292.29 686.91 263.40 709.37 C 297.03 726.76 333.51 738.57 370.89 744.52 C 444.81 756.41 522.38 744.44 589.13 710.48 C 559.81 687.60 530.40 664.84 501.10 641.95 C 497.51 639.54 497.86 633.18 502.01 631.57 C 504.12 630.86 505.94 632.41 507.51 633.60 C 538.12 657.41 568.75 681.21 599.38 705.01 C 605.71 701.71 611.76 697.89 617.89 694.25 C 594.06 675.72 570.22 657.21 546.40 638.66 C 544.45 637.02 541.77 635.69 541.22 632.98 C 540.42 630.10 541.92 626.56 544.94 625.77 C 547.68 625.52 549.63 627.88 551.70 629.31 C 576.87 648.93 602.10 668.49 627.28 688.09 C 693.68 643.54 744.76 576.36 769.18 500.17 C 742.92 421.75 704.13 347.54 655.02 281.02 C 624.16 240.06 588.66 201.89 546.03 172.99 C 512.53 150.36 473.53 134.01 432.69 132.85 C 427.52 194.03 422.54 255.24 417.43 316.43 Z" />
<path fill="#000000" opacity="1.00" d=" M 224.66 444.44 C 242.18 439.08 260.83 437.53 279.06 439.25 C 293.66 440.48 308.19 445.14 320.09 453.84 C 333.09 463.43 341.83 478.12 345.31 493.79 C 350.83 516.94 347.28 540.97 342.62 563.94 C 323.51 568.39 303.44 568.71 284.21 564.76 C 268.86 561.46 254.07 554.20 243.27 542.62 C 231.38 530.32 224.92 513.66 222.73 496.88 C 220.28 479.43 222.18 461.77 224.66 444.44 M 242.12 459.41 C 239.63 475.43 239.47 492.17 244.33 507.77 C 248.14 520.31 256.26 531.72 267.72 538.32 C 285.31 548.68 306.60 549.90 326.46 547.76 C 328.12 537.74 329.13 527.62 329.50 517.48 C 322.01 524.93 310.83 528.18 300.48 526.27 C 285.93 523.93 274.41 510.58 273.71 495.94 C 272.49 480.96 283.08 466.39 297.45 462.34 C 292.33 461.03 287.30 459.32 282.07 458.51 C 268.82 456.29 255.31 457.51 242.12 459.41 Z" />
<path fill="#000000" opacity="1.00" d=" M 578.50 439.73 C 598.08 437.16 618.13 438.91 637.13 444.18 C 640.70 466.30 642.46 489.43 636.20 511.25 C 631.87 527.04 622.40 541.57 609.01 551.12 C 597.26 559.68 583.13 564.52 568.78 566.29 C 552.34 568.52 535.49 567.70 519.34 563.93 C 515.02 542.96 511.82 521.25 515.38 499.91 C 517.69 485.56 523.62 471.47 533.87 460.98 C 545.41 448.59 561.98 441.98 578.50 439.73 M 564.33 462.35 C 578.51 466.15 589.03 480.26 588.25 494.98 C 588.17 509.52 577.10 522.84 562.97 525.97 C 552.21 528.76 540.75 525.01 532.53 517.84 C 532.77 527.88 533.90 537.87 535.51 547.77 C 555.17 549.88 576.16 548.70 593.67 538.64 C 604.42 532.65 612.43 522.37 616.56 510.87 C 622.48 494.45 622.49 476.51 619.87 459.44 C 611.92 458.54 604.00 457.13 595.97 457.27 C 585.22 457.11 574.58 459.22 564.33 462.35 Z" />
<path fill="#000000" opacity="1.00" d=" M 366.22 612.09 C 407.10 600.33 451.30 600.30 492.16 612.12 C 488.52 618.05 483.77 623.17 479.36 628.52 C 468.28 641.74 457.23 654.98 446.15 668.20 C 442.64 672.39 437.71 675.18 432.46 676.57 C 432.55 687.25 432.48 697.92 432.50 708.60 C 430.25 708.59 428.01 708.56 425.77 708.51 C 425.92 697.84 425.79 687.16 425.85 676.49 C 420.70 675.24 415.85 672.58 412.42 668.49 C 401.13 655.13 389.97 641.66 378.74 628.25 C 374.41 622.99 369.72 617.98 366.22 612.09 Z" />
</g>
</svg>
