<?xml version="1.0" encoding="UTF-8" ?>
<!DOCTYPE svg PUBLIC "-//W3C//DTD SVG 1.1//EN" "http://www.w3.org/Graphics/SVG/1.1/DTD/svg11.dtd">
<svg width="500pt" height="500pt" viewBox="0 0 500 500" version="1.1" xmlns="http://www.w3.org/2000/svg">
<g id="#d9005bff">
<path fill="#d9005b" opacity="1.00" d=" M 21.91 8.91 C 22.83 6.14 22.75 2.65 24.48 0.36 C 48.13 3.80 71.54 9.69 93.43 19.42 C 116.62 29.47 138.04 43.81 155.76 61.86 C 121.12 86.92 93.08 120.01 69.20 155.23 C 57.00 173.06 46.44 191.93 36.02 210.83 C 33.71 206.61 30.94 202.63 29.01 198.20 C 13.76 166.51 10.54 130.63 11.35 95.92 C 11.70 66.64 16.01 37.56 21.91 8.91 Z" />
<path fill="#d9005b" opacity="1.00" d=" M 344.69 62.07 C 379.51 26.18 428.21 6.31 477.26 0.22 C 479.42 11.22 482.11 22.12 483.85 33.21 C 490.26 75.36 492.98 118.79 484.44 160.86 C 480.49 178.68 474.23 196.17 464.21 211.52 C 462.52 209.78 461.72 207.47 460.62 205.37 C 445.36 176.90 428.03 149.46 407.84 124.22 C 389.47 101.00 368.51 79.71 344.69 62.07 Z" />
<path fill="#d9005b" opacity="1.00" d=" M 162.16 385.04 C 164.77 383.04 167.96 386.70 167.13 389.37 C 166.31 391.93 163.69 393.15 161.75 394.75 C 144.71 408.10 127.49 421.21 110.56 434.69 C 109.55 435.49 108.51 436.25 107.47 437.02 C 83.20 455.84 58.99 474.73 34.70 493.53 C 33.06 494.61 31.42 496.84 29.21 495.77 C 27.03 494.63 26.96 491.82 27.66 489.76 C 29.59 487.60 32.06 486.00 34.33 484.24 C 56.47 467.07 78.55 449.84 100.69 432.69 C 101.71 431.88 102.69 431.01 103.74 430.25 C 123.32 415.35 142.58 399.97 162.16 385.04 Z" />
<path fill="#d9005b" opacity="1.00" d=" M 331.47 391.49 C 328.39 388.86 331.84 382.16 335.68 385.29 C 355.43 400.48 374.97 415.94 394.77 431.08 C 395.85 431.93 396.93 432.80 398.02 433.65 C 421.53 451.91 445.04 470.16 468.52 488.45 C 472.34 490.52 469.60 497.89 465.44 495.57 C 440.63 476.46 415.96 457.15 391.21 437.95 C 390.11 437.11 389.01 436.27 387.93 435.42 C 369.19 420.68 350.29 406.12 331.47 391.49 Z" />
<path fill="#d9005b" opacity="1.00" d=" M 189.81 390.78 C 191.36 389.75 192.84 387.56 194.95 388.60 C 197.78 390.08 197.83 394.51 195.05 396.07 C 173.57 412.99 151.87 429.63 130.33 446.49 C 129.31 447.33 128.28 448.17 127.24 449.01 C 105.28 465.92 83.46 483.00 61.57 500.00 L 59.35 500.00 C 56.89 498.48 56.24 494.61 58.57 492.71 C 78.75 476.93 99.07 461.33 119.20 445.50 C 120.51 444.41 121.88 443.39 123.28 442.42 C 145.50 425.27 167.61 407.96 189.81 390.78 Z" />
<path fill="#d9005b" opacity="1.00" d=" M 302.11 395.87 C 299.36 394.17 299.84 389.45 302.93 388.42 C 305.06 387.92 306.43 390.06 308.01 391.09 C 330.50 408.40 352.77 426.01 375.32 443.24 C 376.37 444.01 377.44 444.81 378.46 445.65 C 398.40 461.38 418.58 476.81 438.56 492.48 C 441.13 494.31 440.62 498.38 438.07 500.00 L 436.02 500.00 C 414.29 483.38 392.84 466.37 371.14 449.71 C 369.95 448.82 368.82 447.85 367.69 446.90 C 345.83 429.89 323.93 412.93 302.11 395.87 Z" />
</g>
<g id="#333333ff">
<path fill="#333333" opacity="1.00" d=" M 224.63 30.40 C 237.24 27.78 250.20 27.89 262.99 28.57 C 292.79 31.57 320.49 44.97 344.69 62.07 C 368.51 79.71 389.47 101.00 407.84 124.22 C 428.03 149.46 445.36 176.90 460.62 205.37 C 461.72 207.47 462.52 209.78 464.21 211.52 C 466.96 215.45 468.75 219.96 470.87 224.25 C 482.34 247.20 491.87 271.08 500.00 295.41 L 500.00 296.38 C 494.50 312.09 488.42 327.65 480.23 342.18 C 460.62 378.66 431.94 409.98 398.02 433.65 C 396.93 432.80 395.85 431.93 394.77 431.08 C 442.07 398.84 478.58 350.69 495.74 295.99 C 492.96 285.08 488.37 274.74 484.54 264.17 C 462.33 209.85 432.65 158.24 394.32 113.66 C 376.88 93.74 357.52 75.29 335.44 60.57 C 312.88 45.39 286.95 34.32 259.62 32.28 L 258.87 32.59 C 255.96 76.02 251.45 119.38 248.38 162.80 C 246.82 162.96 245.26 163.11 243.70 163.28 C 232.38 121.57 221.49 79.74 210.01 38.07 C 208.24 38.68 206.48 39.31 204.72 39.96 C 207.45 54.00 209.62 68.14 212.49 82.17 C 215.24 95.75 217.27 109.46 220.02 123.05 C 223.33 139.35 225.85 155.78 229.11 172.09 C 227.69 172.68 226.27 173.25 224.85 173.81 C 202.29 137.86 179.55 102.02 157.08 66.02 C 143.93 74.95 132.28 85.92 120.98 97.06 C 79.37 140.04 47.61 191.73 23.10 246.08 C 16.31 261.61 10.14 277.41 4.75 293.48 C 3.57 296.11 5.01 298.77 5.81 301.27 C 16.04 330.26 31.11 357.61 50.78 381.27 C 66.00 400.02 84.18 416.19 103.74 430.25 C 102.69 431.01 101.71 431.88 100.69 432.69 C 53.34 399.72 17.23 350.91 0.00 295.80 L 0.00 295.35 C 2.24 289.91 3.74 284.22 5.74 278.70 C 14.44 255.50 24.21 232.63 36.02 210.83 C 46.44 191.93 57.00 173.06 69.20 155.23 C 93.08 120.01 121.12 86.92 155.76 61.86 C 176.41 47.09 199.62 35.44 224.63 30.40 Z" />
<path fill="#333333" opacity="1.00" d=" M 107.16 252.90 C 119.95 248.93 133.56 247.69 146.88 248.94 C 162.57 250.14 178.74 256.87 188.07 270.03 C 196.17 281.18 199.29 295.35 198.83 308.96 C 199.11 320.05 197.14 331.03 194.78 341.82 C 176.44 346.08 156.47 345.81 138.95 338.40 C 124.57 332.54 113.19 319.93 108.70 305.08 C 102.97 288.26 104.37 270.14 107.16 252.90 M 127.00 263.41 C 124.61 263.65 122.06 263.38 119.88 264.60 C 117.98 279.54 118.05 295.63 125.78 309.10 C 132.58 321.39 146.54 328.08 160.06 329.56 C 167.46 330.76 175.10 330.45 182.52 329.69 C 184.31 322.48 184.55 314.86 184.78 307.39 C 175.86 316.82 158.87 316.37 150.30 306.65 C 144.35 300.62 141.89 291.32 144.38 283.19 C 146.42 275.43 152.71 269.37 160.06 266.47 C 158.44 264.53 154.97 265.06 152.67 264.09 C 144.27 262.34 135.51 262.27 127.00 263.41 Z" />
<path fill="#333333" opacity="1.00" d=" M 323.37 257.62 C 333.16 251.72 344.52 248.68 355.91 248.42 C 367.82 248.10 380.09 248.81 391.34 252.85 C 394.18 270.01 395.47 288.12 389.77 304.85 C 385.38 319.58 374.10 332.00 359.98 337.99 C 345.66 344.31 329.53 345.31 314.15 343.57 C 310.68 342.95 306.95 342.69 303.71 341.46 C 299.50 322.39 296.75 301.82 303.53 283.01 C 306.97 272.58 314.18 263.56 323.37 257.62 M 338.16 265.50 C 338.22 265.71 338.36 266.12 338.43 266.33 C 344.86 268.72 350.36 273.68 353.10 280.00 C 355.24 284.64 354.99 289.94 354.47 294.91 C 352.21 305.54 342.05 314.20 331.02 313.85 C 324.61 314.26 318.32 311.71 313.66 307.37 C 313.45 314.78 314.68 322.08 315.61 329.40 C 321.73 329.82 327.88 330.86 333.99 329.74 C 344.35 329.44 354.57 325.99 363.04 320.01 C 372.73 312.60 377.80 300.55 379.07 288.68 C 379.99 280.42 379.68 271.99 378.31 263.79 C 372.86 263.65 367.53 262.34 362.06 262.43 C 353.95 262.04 345.98 263.79 338.16 265.50 Z" />
<path fill="#333333" opacity="1.00" d=" M 207.32 374.63 C 224.02 369.52 241.56 368.04 258.97 368.72 C 271.30 369.41 283.65 370.98 295.50 374.71 C 296.04 375.75 294.68 376.50 294.29 377.34 C 283.76 390.12 273.03 402.76 262.47 415.51 C 260.13 418.20 256.73 419.31 253.56 420.58 C 253.81 427.94 253.58 435.32 253.69 442.69 C 252.13 443.47 249.93 443.69 248.73 442.20 C 248.82 434.90 248.77 427.60 248.75 420.31 C 245.67 419.37 242.49 418.25 240.36 415.68 C 229.83 403.46 219.61 390.98 209.26 378.61 C 208.55 377.35 206.69 376.25 207.32 374.63 Z" />
<path fill="#333333" opacity="1.00" d=" M 107.47 437.02 C 108.51 436.25 109.55 435.49 110.56 434.69 C 114.90 437.08 119.01 439.90 123.28 442.42 C 121.88 443.39 120.51 444.41 119.20 445.50 L 119.95 444.73 C 115.64 442.41 111.40 439.93 107.47 437.02 Z" />
<path fill="#333333" opacity="1.00" d=" M 375.32 443.24 C 379.49 440.59 383.83 438.20 387.93 435.42 C 389.01 436.27 390.11 437.11 391.21 437.95 C 387.16 440.84 382.80 443.23 378.46 445.65 C 377.44 444.81 376.37 444.01 375.32 443.24 Z" />
<path fill="#333333" opacity="1.00" d=" M 367.69 446.90 C 368.82 447.85 369.95 448.82 371.14 449.71 C 305.64 484.39 225.07 488.93 156.06 461.97 C 146.12 458.41 136.70 453.64 127.24 449.01 C 128.28 448.17 129.31 447.33 130.33 446.49 L 130.92 446.39 C 141.92 452.14 153.32 457.21 165.11 461.14 C 225.47 482.59 293.88 480.03 352.53 454.28 C 357.59 451.85 363.02 450.04 367.69 446.90 Z" />
</g>
<g id="#ffffffff">
<path fill="#ffffff" opacity="1.00" d=" M 248.38 162.80 C 251.45 119.38 255.96 76.02 258.87 32.59 L 259.62 32.28 C 286.95 34.32 312.88 45.39 335.44 60.57 C 357.52 75.29 376.88 93.74 394.32 113.66 C 432.65 158.24 462.33 209.85 484.54 264.17 C 488.37 274.74 492.96 285.08 495.74 295.99 C 478.58 350.69 442.07 398.84 394.77 431.08 C 374.97 415.94 355.43 400.48 335.68 385.29 C 331.84 382.16 328.39 388.86 331.47 391.49 C 350.29 406.12 369.19 420.68 387.93 435.42 C 383.83 438.20 379.49 440.59 375.32 443.24 C 352.77 426.01 330.50 408.40 308.01 391.09 C 306.43 390.06 305.06 387.92 302.93 388.42 C 299.84 389.45 299.36 394.17 302.11 395.87 C 323.93 412.93 345.83 429.89 367.69 446.90 C 363.02 450.04 357.59 451.85 352.53 454.28 C 293.88 480.03 225.47 482.59 165.11 461.14 C 153.32 457.21 141.92 452.14 130.92 446.39 L 130.33 446.49 C 151.87 429.63 173.57 412.99 195.05 396.07 C 197.83 394.51 197.78 390.08 194.95 388.60 C 192.84 387.56 191.36 389.75 189.81 390.78 C 167.61 407.96 145.50 425.27 123.28 442.42 C 119.01 439.90 114.90 437.08 110.56 434.69 C 127.49 421.21 144.71 408.10 161.75 394.75 C 163.69 393.15 166.31 391.93 167.13 389.37 C 167.96 386.70 164.77 383.04 162.16 385.04 C 142.58 399.97 123.32 415.35 103.74 430.25 C 84.18 416.19 66.00 400.02 50.78 381.27 C 31.11 357.61 16.04 330.26 5.81 301.27 C 5.01 298.77 3.57 296.11 4.75 293.48 C 10.14 277.41 16.31 261.61 23.10 246.08 C 47.61 191.73 79.37 140.04 120.98 97.06 C 132.28 85.92 143.93 74.95 157.08 66.02 C 179.55 102.02 202.29 137.86 224.85 173.81 C 226.27 173.25 227.69 172.68 229.11 172.09 C 225.85 155.78 223.33 139.35 220.02 123.05 C 217.27 109.46 215.24 95.75 212.49 82.17 C 209.62 68.14 207.45 54.00 204.72 39.96 C 206.48 39.31 208.24 38.68 210.01 38.07 C 221.49 79.74 232.38 121.57 243.70 163.28 C 245.26 163.11 246.82 162.96 248.38 162.80 M 107.16 252.90 C 104.37 270.14 102.97 288.26 108.70 305.08 C 113.19 319.93 124.57 332.54 138.95 338.40 C 156.47 345.81 176.44 346.08 194.78 341.82 C 197.14 331.03 199.11 320.05 198.83 308.96 C 199.29 295.35 196.17 281.18 188.07 270.03 C 178.74 256.87 162.57 250.14 146.88 248.94 C 133.56 247.69 119.95 248.93 107.16 252.90 M 323.37 257.62 C 314.18 263.56 306.97 272.58 303.53 283.01 C 296.75 301.82 299.50 322.39 303.71 341.46 C 306.95 342.69 310.68 342.95 314.15 343.57 C 329.53 345.31 345.66 344.31 359.98 337.99 C 374.10 332.00 385.38 319.58 389.77 304.85 C 395.47 288.12 394.18 270.01 391.34 252.85 C 380.09 248.81 367.82 248.10 355.91 248.42 C 344.52 248.68 333.16 251.72 323.37 257.62 M 207.32 374.63 C 206.69 376.25 208.55 377.35 209.26 378.61 C 219.61 390.98 229.83 403.46 240.36 415.68 C 242.49 418.25 245.67 419.37 248.75 420.31 C 248.77 427.60 248.82 434.90 248.73 442.20 C 249.93 443.69 252.13 443.47 253.69 442.69 C 253.58 435.32 253.81 427.94 253.56 420.58 C 256.73 419.31 260.13 418.20 262.47 415.51 C 273.03 402.76 283.76 390.12 294.29 377.34 C 294.68 376.50 296.04 375.75 295.50 374.71 C 283.65 370.98 271.30 369.41 258.97 368.72 C 241.56 368.04 224.02 369.52 207.32 374.63 Z" />
<path fill="#ffffff" opacity="1.00" d=" M 338.16 265.50 C 345.98 263.79 353.95 262.04 362.06 262.43 C 367.53 262.34 372.86 263.65 378.31 263.79 C 379.68 271.99 379.99 280.42 379.07 288.68 C 377.80 300.55 372.73 312.60 363.04 320.01 C 354.57 325.99 344.35 329.44 333.99 329.74 C 327.88 330.86 321.73 329.82 315.61 329.40 C 314.68 322.08 313.45 314.78 313.66 307.37 C 318.32 311.71 324.61 314.26 331.02 313.85 C 342.05 314.20 352.21 305.54 354.47 294.91 C 354.99 289.94 355.24 284.64 353.10 280.00 C 350.36 273.68 344.86 268.72 338.43 266.33 C 338.36 266.12 338.22 265.71 338.16 265.50 Z" />
<path fill="#ffffff" opacity="1.00" d=" M 127.00 263.41 C 135.51 262.27 144.27 262.34 152.67 264.09 C 154.97 265.06 158.44 264.53 160.06 266.47 C 152.71 269.37 146.42 275.43 144.38 283.19 C 141.89 291.32 144.35 300.62 150.30 306.65 C 158.87 316.37 175.86 316.82 184.78 307.39 C 184.55 314.86 184.31 322.48 182.52 329.69 C 175.10 330.45 167.46 330.76 160.06 329.56 C 146.54 328.08 132.58 321.39 125.78 309.10 C 118.05 295.63 117.98 279.54 119.88 264.60 C 122.06 263.38 124.61 263.65 127.00 263.41 Z" />
</g>
</svg>
